# xmcd
#
# Track frame offsets: 
#        150
#        10554
#        23971
#        36435
#        50914
#        69379
#        83538
#        94735
#        111040
#        121758
#        134692
#        146288
#
# Disc length: 2162 seconds
#
# Revision: 0
# Processed by: cddbd v1.5.2PL0 Copyright (c) Steve Scherf et al.
# Submitted via: ExactAudioCopyFreeDBPlugin 1.0
#
DISCID=9a08700c
DTITLE=Good Time Charlie - Diamonds
DYEAR=2014
DGENRE=Blues
TTITLE0=Wolf Ticket
TTITLE1=Out Of Wack
TTITLE2=Too Little Too Late
TTITLE3=Still Frozen
TTITLE4=All My Life
TTITLE5=Eden Is Burnin'
TTITLE6=Makin' A Way Outta No Way
TTITLE7=Talk To Me
TTITLE8=Broke
TTITLE9=15 Minutes
TTITLE10=Gonna Get Back Somehow
TTITLE11=Made In The Shade
EXTD=
EXTT0=
EXTT1=
EXTT2=
EXTT3=
EXTT4=
EXTT5=
EXTT6=
EXTT7=
EXTT8=
EXTT9=
EXTT10=
EXTT11=
PLAYORDER=
